<svg width="208" height="173" viewBox="0 0 208 173" fill="none" xmlns="http://www.w3.org/2000/svg">
<path fill-rule="evenodd" clip-rule="evenodd" d="M65.5327 72.2997C66.2764 79.9029 67.0441 87.506 67.7878 95.1091C71.89 92.7586 75.9923 90.4321 80.0945 88.0816V109.956C80.0945 110.363 79.8546 111.73 80.0945 112.09C80.2865 112.378 81.7978 112.402 82.1577 112.45C84.4847 112.786 86.8117 113.074 89.1387 113.313C95.2801 113.985 101.829 114.968 107.995 114.177C113.344 113.505 118.526 111.587 123.42 109.38C125.147 108.612 126.827 107.773 128.482 106.886C128.842 106.694 130.113 106.262 130.305 105.878C130.473 105.566 130.089 104.463 130.041 104.127C129.825 102.736 129.633 101.345 129.418 99.954L126.539 80.5505L131.985 85.995C132.416 86.4267 133.232 87.6259 133.808 87.8178C134.24 87.9617 135.319 87.53 135.751 87.4341C138.846 86.8344 141.916 86.2348 145.011 85.6592C145.731 85.5153 147.362 85.5153 147.962 85.0836C148.298 84.8437 148.298 84.364 148.418 83.9323C149.161 80.9822 149.929 78.0321 150.673 75.082C150.817 74.5543 151.56 72.8754 151.368 72.3477C151.296 72.1558 150.96 72.0359 150.769 71.892C146.115 69.0378 141.46 66.2076 136.782 63.3535C134.24 61.7945 131.673 60.2355 129.13 58.6765C128.05 58.0289 126.755 56.8536 125.531 56.4699C124.788 56.254 123.684 56.4219 122.916 56.3979L118.166 56.254C117.926 56.254 117.063 56.0621 116.847 56.206C116.679 56.326 116.751 56.4939 116.679 56.7817C116.57 57.5051 116.498 58.2336 116.463 58.9643C116.415 59.5399 116.511 60.5952 116.247 61.1229C116.079 61.4587 116.295 61.3148 116.079 61.4827C115.815 61.6745 114.952 61.6026 114.64 61.6506C113.081 61.8424 111.545 62.0103 109.986 62.2022C108.139 62.4181 106.291 62.8258 104.42 62.6339C101.613 62.3461 98.5907 62.3701 95.8319 61.7705C95.1122 61.6266 94.8483 61.2188 94.2965 60.6672C93.217 59.5879 92.1614 58.5086 91.0579 57.4293C90.5301 56.9016 90.746 56.9975 90.1942 57.1894C89.4985 57.4293 88.8028 58.0289 88.1791 58.4126C85.7801 59.8757 83.3811 61.3388 81.0061 62.7778L66.3963 71.6761C66.1287 71.9107 65.8396 72.1195 65.5327 72.2997Z" fill="#F5F3F1"/>
<path fill-rule="evenodd" clip-rule="evenodd" d="M205.297 73.2287C202.274 84.6694 196.228 97.1414 184.018 100.763C181.043 101.65 178.164 102.322 175.069 101.986C174.797 101.97 174.524 101.978 174.254 102.01C173.75 102.01 174.182 102.202 173.63 102.034C173.198 101.89 172.79 101.555 172.335 101.411C171.135 101.003 169.84 100.931 168.592 100.619C165.522 99.824 162.496 98.8713 159.524 97.765C158.133 97.2613 156.885 96.5418 155.59 95.8702C154.27 95.1746 152.879 94.7429 151.535 94.0953C150.48 93.5917 148.681 92.9441 147.937 91.9847C147.145 90.9773 148.249 88.8187 148.561 87.7634C149.616 84.1177 150.888 80.52 151.679 76.8024C154.438 79.9924 158.276 81.9831 162.235 83.2543C164.386 83.9471 166.593 84.4527 168.832 84.7653C170.871 85.0531 173.054 85.3889 175.093 84.9812C176.629 84.6694 178.548 83.9738 179.651 82.7986C180.035 82.3908 180.515 81.6233 180.299 80.9997C180.011 80.2322 179.22 80.592 178.764 80.0163C178.38 79.5127 178.452 78.3374 178.308 77.7378C178.094 76.6638 177.805 75.606 177.444 74.5718C176.749 72.5571 175.861 70.5184 175.669 68.3838C175.488 66.5522 175.9 64.7111 176.845 63.1311C177.276 62.3636 178.38 60.277 179.46 60.3729C180.635 60.4688 179.052 65.4577 179.004 66.465C178.788 70.4944 179.34 74.8117 181.403 78.3374C182.194 79.6805 183.346 81.2635 185.025 81.4314C186.824 81.5993 188.264 80.2082 189.127 78.7691C191.215 75.2914 190.159 70.5184 189.103 66.8488C187.808 62.3636 184.425 59.2936 182.29 55.2642C185.481 55.576 187.184 57.6147 188.816 60.181C190.664 63.1003 191.98 66.3242 192.702 69.7029C193.062 71.3579 192.822 73.0368 192.822 74.7157C192.822 75.2674 192.822 77.3301 193.733 77.2581C194.717 77.1622 195.029 74.8596 195.173 74.1401C195.509 72.5091 195.845 70.9022 196.132 69.2472C196.636 66.3691 196.852 63.395 197.452 60.5408C197.548 60.0611 197.764 58.718 198.483 59.0777C199.035 59.3656 198.963 61.4282 198.963 61.9319C199.011 63.1311 199.083 64.3064 199.083 65.5056C199.107 67.2805 198.747 69.1033 198.915 70.8542C199.035 72.0055 199.635 73.2767 200.403 71.7177C201.17 70.1826 201.314 68.2639 201.746 66.6089C202.202 64.882 202.658 63.1072 203.593 61.5721C203.857 61.1404 204.145 60.4688 204.721 60.6607C205.153 60.8046 205.464 61.812 205.584 62.1478C206.184 63.7308 206.064 65.5056 206.04 67.1846C206.059 69.2232 205.809 71.2554 205.297 73.2287ZM146.569 76.2028C146.237 76.1392 145.9 76.0991 145.562 76.0829C145.37 76.0589 145.586 75.6991 145.106 75.795C145.147 75.9058 145.215 76.0051 145.302 76.0844C145.39 76.1637 145.495 76.2208 145.61 76.2508C144.89 76.4906 144.362 75.891 143.859 75.819C143.379 75.7471 143.355 75.819 142.899 76.3227C142.395 75.6991 142.491 76.0829 142.083 76.0829C141.939 76.0829 141.915 76.3227 141.676 76.2747C141.46 76.2508 141.436 75.915 141.316 75.891C140.62 75.6751 139.924 76.7304 139.133 75.819C138.941 76.7784 136.758 75.5792 135.942 75.7471C135.054 75.915 135.438 76.2268 134.742 75.6991C134.071 75.1954 134.263 75.5312 133.471 75.9389C133.495 75.9389 133.039 76.2508 133.063 76.2508C132.511 76.1788 132.559 75.6272 131.864 75.6511C131.144 75.6751 130.832 76.2508 130.16 75.5552C130.016 76.0829 129.993 75.843 129.633 75.9869C129.544 76.0119 129.449 76.0116 129.36 75.9862C129.271 75.9608 129.191 75.9112 129.129 75.843C129.111 75.91 129.075 75.9706 129.024 76.0174C128.973 76.0642 128.909 76.0952 128.841 76.1068C128.457 76.1308 127.761 76.2028 127.426 76.0109C126.922 75.7471 127.33 75.6271 126.97 75.3393C126.802 76.1788 126.466 75.9869 125.746 76.0829C125.195 76.1308 125.075 75.9629 124.547 75.891C124.019 75.819 123.347 76.0109 122.844 76.1068C122.628 76.1308 122.34 76.2987 122.148 76.2268C121.956 76.1788 121.86 76.0349 121.764 75.9869C121.62 75.9389 121.644 75.819 121.404 75.7471C121.236 75.6991 120.948 75.867 120.78 75.891C119.581 76.0829 118.453 76.0829 117.326 75.6272C117.878 76.6105 116.03 76.0829 115.695 75.6751C115.287 76.3227 114.783 75.867 113.943 75.915C113.128 75.9629 111.928 76.2028 111.592 75.1954C111.422 75.5344 111.185 75.8361 110.897 76.0829C110.369 76.3467 110.297 75.9629 109.817 75.795C109.145 75.5792 109.289 75.9869 108.881 76.0829C108.186 76.2268 107.802 75.7231 107.178 75.4593C107.154 75.867 107.13 76.1068 106.794 76.3707C106.482 75.2434 105.379 76.4666 105.571 74.9556C105.139 75.2194 104.539 75.4353 104.419 76.0109C105.139 75.819 104.491 76.2747 104.467 76.2987C104.371 76.3467 104.06 75.915 103.988 75.843C103.96 76.0498 103.943 76.258 103.94 76.4666C103.672 76.3077 103.416 76.1315 103.172 75.9389C102.956 75.819 103.268 75.5792 102.908 75.5792C102.716 75.5792 102.524 75.9629 102.332 76.0109C102.044 76.0589 102.188 75.6511 102.044 75.6511C101.852 75.6751 101.541 75.9389 101.397 75.9389C100.941 75.915 101.253 75.6991 100.893 75.6032C100.245 75.4353 100.293 75.843 99.8373 75.9869C98.7818 76.3227 98.9017 74.7397 97.8222 75.795C97.5583 76.0589 97.4143 76.4426 97.0545 76.4186C96.3348 76.3707 96.5747 75.5072 96.7426 75.0995C96.8866 75.1714 94.1037 76.6105 94.1277 76.5626C94.1517 76.2268 94.5835 75.9629 94.1997 75.6511C93.8878 76.3467 93.552 76.3467 92.8083 76.4906C92.4484 76.5626 92.3765 76.6345 91.9926 76.4906C91.7527 76.3947 91.5848 76.0109 91.3449 75.9869C91.1923 76.1237 91.0321 76.2518 90.8651 76.3707C90.4573 76.5626 90.2174 76.3467 89.8096 76.4186C89.4737 76.4906 89.3538 76.7784 89.0179 76.6825C88.5621 76.5865 88.826 76.0589 88.2262 76.2028C88.0103 76.2507 87.8904 76.6585 87.5545 76.7304C87.0507 76.8504 86.403 76.6105 85.8752 76.7544C85.5048 76.842 85.1276 76.8982 84.7477 76.9223C84.4358 76.9463 84.5798 76.7065 84.004 76.9703L83.7641 76.3707C83.4762 76.6345 83.2124 76.8744 82.9245 77.1382C82.8674 76.9105 82.8352 76.6773 82.8285 76.4426C82.4207 76.8504 81.8929 76.9223 81.3172 76.9703C80.7599 77.0312 80.207 77.1273 79.6619 77.2581C79.4699 77.2821 78.9902 77.354 78.8462 77.2821C78.8702 77.2821 78.5583 77.1622 78.6543 77.1861C78.6063 77.1142 78.5823 77.0183 78.5343 76.9463C78.4864 76.7065 78.3184 76.7065 78.0306 76.9223C77.8866 76.8983 77.5987 76.7065 77.4548 76.7544C77.071 76.8744 77.1189 77.1861 76.7351 77.1382C76.4952 77.1142 76.3513 76.7544 76.1114 76.7304C75.7275 76.6825 75.3677 77.1382 75.0318 77.2341C76.1114 76.9463 73.6404 77.1622 74.4081 77.1861C73.9043 77.1622 73.3765 77.1382 72.9207 77.378C72.6568 77.2101 72.9687 76.8504 72.7048 76.7065C72.4649 76.5626 72.4409 76.9223 72.4169 76.9223C72.5609 76.8744 72.4889 77.1862 72.345 77.2341C71.8892 77.402 71.5053 76.9703 71.4813 76.5626C71.0975 77.1622 70.9776 76.9223 70.4018 76.9463C69.826 76.9943 69.3462 77.2821 68.7705 77.2821C67.643 77.2821 66.8753 76.8744 66.4915 75.867C67.6909 76.0109 68.9144 75.2434 70.0899 75.4113C70.4738 75.4832 70.7137 75.7711 71.0495 75.6991C71.4574 75.6271 71.7692 75.1714 72.297 75.1235C73.4725 75.0035 74.648 75.1235 75.8475 74.9316C77.282 74.6958 78.7378 74.6154 80.1896 74.6917C81.2932 74.7637 82.2048 74.356 83.3323 74.26C84.7957 74.1641 86.2591 74.1401 87.7225 74.0681C89.2098 73.9962 90.8411 73.7563 92.3285 73.8283C92.7671 73.8682 93.2076 73.8842 93.6479 73.8763C93.8399 73.8763 94.0318 73.7324 94.2237 73.7563C94.4876 73.7803 94.6075 74.0442 94.8954 74.0442C95.3752 74.0202 95.879 73.6364 96.4307 73.6364C97.3424 73.6124 98.278 73.6124 99.1896 73.5645C100.005 73.5165 100.869 73.3246 101.685 73.3486C102.26 73.3486 102.404 73.8523 102.74 73.9003C103.34 73.9962 106.363 72.2693 106.626 73.8043C108.21 72.725 110.321 73.6364 112.072 73.4445C114.327 73.1807 116.63 73.4206 118.885 73.3246C121.214 73.2407 123.547 73.3129 125.866 73.5405C126.805 73.6522 127.752 73.6923 128.697 73.6604C129.129 73.6364 129.609 73.5165 130.04 73.6364C130.136 73.6604 130.928 74.2121 130.832 74.236C131.264 73.8523 130.976 73.7803 131.72 73.7803C132.296 73.7563 132.847 73.9003 133.447 73.9242C134.503 73.9962 135.534 73.8523 136.59 73.8763C137.453 73.9003 138.317 74.0202 139.181 74.0442C140.116 74.0442 141.244 74.0682 141.915 74.8357L141.7 74.1161C142.755 74.1881 143.787 74.5718 144.866 74.4039C144.602 74.6678 144.314 74.8836 144.218 75.2434C144.794 75.1714 145.178 74.7637 145.778 74.7637C146.282 74.7637 146.402 75.0035 146.929 74.6917C147.001 75.0995 147.049 75.5072 147.121 75.891C147.865 75.7231 147.385 75.1714 147.433 74.6678C148.033 74.8596 148.537 74.6438 148.321 75.5072C148.033 76.0829 147.193 76.3947 146.569 76.2028ZM145.514 83.662C145.25 84.3815 143.019 83.9738 142.491 83.9019C141.795 83.8059 141.028 83.638 140.404 83.5661C140.329 83.4665 140.24 83.3778 140.14 83.3022C140.071 83.4192 139.959 83.5051 139.828 83.5421C139.54 83.614 139.54 83.9019 139.157 83.8299C139.133 84.2616 139.444 84.0218 139.684 84.1897C139.085 84.5974 139.373 84.1177 139.037 84.1417C139.004 84.0849 138.953 84.0402 138.893 84.0143C138.832 83.9884 138.765 83.9826 138.701 83.9978C138.511 84.0426 138.332 84.1241 138.173 84.2376C138.029 84.4055 137.909 84.4055 137.789 84.2616C137.693 84.1612 137.567 84.094 137.429 84.0697C136.854 84.1657 136.686 84.4295 136.014 84.3815C135.078 84.3096 134.071 84.5734 133.135 84.4295C132.559 84.3576 131.6 83.4461 131.336 84.3336C130.928 83.686 130.304 83.2303 129.921 82.5827C131.696 82.4868 133.447 82.3668 135.222 82.2949C136.782 82.2469 138.461 82.4148 139.9 82.3428C141.244 82.2709 142.683 82.127 144.075 82.0071C145.562 81.8632 146.042 82.175 145.514 83.662ZM99.4535 83.7579C100.101 83.9258 100.701 83.5421 101.325 83.662C101.541 83.71 101.948 84.0697 102.044 84.0937C102.212 84.1177 102.716 83.734 102.932 83.686C104.379 83.4025 105.864 83.3701 107.322 83.5901C108.042 83.686 108.162 83.3502 108.785 83.2063C109.433 83.0384 110.369 83.1583 111.065 83.1104C112.696 82.9904 114.327 83.0864 115.934 82.9665C117.59 82.8465 119.245 82.7746 120.9 82.7026C122.028 82.6547 124.739 82.0071 125.674 82.8465C126.442 83.5421 125.458 84.7413 124.691 85.0051C124.115 85.221 123.827 84.7893 123.419 84.8133C122.939 84.8612 123.107 85.4369 122.676 84.9092C122.412 85.4369 120.708 85.221 120.229 85.245C119.173 85.3169 118.261 85.5328 117.542 84.5494C117.59 84.8373 117.638 85.1251 117.686 85.4129C116.726 84.9092 115.695 85.0771 114.879 85.245C114.471 85.3409 113.2 85.9405 112.768 85.6767C112.456 85.4848 113.008 85.197 112.48 85.0291C112.216 84.9572 111.736 85.3889 111.4 85.3649C110.489 85.293 110.753 84.6933 109.841 85.4609C109.697 85.3195 109.589 85.1454 109.526 84.9533C109.463 84.7612 109.448 84.5568 109.481 84.3576C108.833 84.9092 108.881 85.8446 107.706 85.6767C107.274 85.6048 107.178 85.173 106.962 85.0771C106.482 84.9092 106.435 85.221 106.003 85.4609C105.842 85.577 105.664 85.6662 105.475 85.7247C105.091 85.7727 105.043 85.5808 104.971 85.6048C104.707 85.6287 104.395 85.7727 104.084 85.6767C103.82 85.6048 103.724 85.1251 103.244 85.221C102.788 85.3169 102.788 85.6288 102.86 86.1084C102.404 86.0605 102.14 85.8206 101.804 85.5328C101.469 86.3243 100.749 85.6767 100.341 86.3483C99.8133 85.7247 99.5014 85.8926 98.8537 85.293C98.8777 85.5328 98.9257 85.7966 98.9497 86.0365C98.4459 85.9405 98.23 85.5808 97.7982 86.0605C97.3903 85.293 96.1189 86.3963 95.4712 85.6527C95.1833 86.5881 93.2881 86.3723 92.4724 86.3963C91.7527 86.4202 91.225 86.3483 90.5293 86.5162C89.8635 86.6877 89.1775 86.7683 88.4901 86.756C88.0707 86.6815 87.6438 86.6573 87.2187 86.6841C86.5469 86.756 85.9472 87.1158 85.2515 86.9479C84.1959 86.7081 83.5482 85.3169 84.7237 84.6933C85.5394 84.2856 86.9788 84.4295 87.8664 84.3576C89.3298 84.2376 90.9851 83.9498 92.4724 84.0937C93.6239 84.1897 94.6795 83.9258 95.831 83.8059C96.7186 83.71 98.158 83.5661 98.7338 84.4295C98.9977 84.1657 98.9737 83.638 99.4535 83.7579ZM83.3323 95.7263C83.1644 94.9348 89.9055 94.5031 90.5772 94.4551C91.9686 94.3352 93.384 94.2632 94.7994 94.2392C95.951 94.2153 97.0305 94.4311 98.182 94.2632C99.2616 94.0953 100.557 93.7595 101.493 94.527C101.637 93.4717 105.691 93.9994 106.458 93.9994C109.817 94.0234 113.032 94.0234 116.27 93.8075C118.118 93.6876 120.085 93.5197 121.956 93.6156C122.796 93.6636 123.467 93.8795 124.307 93.6876C124.859 93.5677 125.434 93.3038 125.962 93.6636C126.562 94.0953 126.826 95.5824 126.418 96.182C126.106 96.6377 125.842 96.5897 125.362 96.4938C124.619 96.3739 124.067 96.206 123.299 96.5178C123.144 96.5337 122.992 96.5658 122.844 96.6137C121.98 96.6857 120.804 97.2853 120.061 96.5897C120.349 96.6377 120.804 96.11 120.421 96.0621C120.133 96.0381 119.965 96.3259 119.749 96.4218C119.005 96.7576 118.597 96.6617 118.166 95.9421C117.254 96.7336 117.158 96.5178 116.75 95.5344C116.438 95.7743 116.366 96.3259 116.126 96.5178C116.102 96.5418 116.246 96.8775 116.054 96.8775C115.886 96.8536 115.839 96.5897 115.719 96.5897C115.647 96.5657 115.599 96.3499 115.527 96.3259C115.455 96.3019 115.359 96.4698 115.263 96.4458C115.023 96.4458 114.303 96.9735 114.567 96.23C114.183 96.7097 114.015 96.3979 113.895 95.9661C113.464 96.3019 113.032 96.6377 112.576 96.9495C112.384 96.3739 112.024 96.5418 111.592 96.7336C111.736 96.3499 111.64 95.9661 111.304 96.2539C111.113 96.4218 110.993 96.9015 110.777 97.1174C109.985 96.3019 109.697 96.5418 108.594 96.6377C108.162 96.6857 107.658 96.7576 107.274 96.4938C106.938 96.2779 106.746 95.4625 106.195 96.11C106.315 95.9661 106.123 97.0934 106.099 97.2613C105.856 97.091 105.645 96.88 105.475 96.6377C105.139 97.2853 104.299 96.7097 103.604 96.8296C102.5 97.0454 101.373 97.3812 100.389 96.5657C100.317 96.8296 99.5254 97.1654 99.5254 97.1654C99.5734 96.6857 99.8613 96.8536 99.2616 96.7816C99.1416 96.7576 99.0217 96.9735 98.9257 96.9975C98.5427 97.0334 98.1572 97.0334 97.7742 96.9975C96.2628 96.9495 94.8954 97.2853 93.408 97.4052C92.9043 97.4532 92.3045 97.5251 91.8487 97.3333C91.3689 97.1414 91.3689 96.9255 90.8891 97.0454C91.033 96.9975 90.5772 97.5012 90.6012 97.4772C90.5293 97.5251 90.2654 97.2853 90.1694 97.3093C90.1485 97.4163 90.1163 97.5208 90.0734 97.6211C89.9535 97.5971 89.8335 97.5971 89.7136 97.5731C89.4017 97.6211 89.0899 97.2853 88.802 97.2853C88.85 97.2853 87.9863 97.6211 88.0103 97.6451C87.3866 97.3333 87.5785 97.4292 86.7868 97.6211C86.0432 97.789 85.3235 97.765 84.5798 97.8609C82.3008 98.1727 83.5962 97.0694 83.3323 95.7263ZM81.4131 106.687C81.0053 106.112 82.1088 105.896 82.4447 105.848C83.0204 105.752 83.7881 105.92 84.172 105.848C84.7477 105.704 85.3235 105.368 85.9712 105.296C86.8108 105.176 87.6265 105.176 88.4661 105.104C88.7592 105.05 89.0559 105.018 89.3538 105.008C89.7616 105.032 89.9295 105.248 90.2414 105.248C90.7931 105.248 91.4888 104.912 92.0406 104.84C92.7603 104.768 93.504 104.721 94.2237 104.673C95.759 104.601 97.2704 104.625 98.8297 104.625C99.5254 104.625 101.397 103.905 101.756 104.721C102.236 104.097 103.484 104.193 104.179 104.169C105.403 104.145 106.602 104.025 107.826 103.953C108.881 103.905 110.033 104.121 111.065 103.977C111.64 103.881 111.808 103.713 112.456 103.785C112.936 103.857 113.655 103.593 114.063 103.713C114.039 103.713 114.567 104.049 114.399 104.049C114.591 104.049 114.567 104.169 114.783 104.097C115.047 104.025 114.927 103.689 115.479 103.569C116.342 103.377 117.47 103.593 118.357 103.545C119.221 103.497 120.085 103.473 120.948 103.473C121.356 103.473 121.836 103.377 122.22 103.449C122.412 103.497 122.82 103.737 122.963 103.713C123.419 103.641 123.659 103.329 124.259 103.353C124.931 103.385 125.604 103.369 126.274 103.305C126.946 103.257 127.042 103.162 127.378 103.713C127.713 104.265 127.809 104.984 127.186 105.368C127.57 105.344 128.073 105.872 127.594 106.16C127.306 106.351 126.73 105.944 126.394 105.968C125.962 106.016 125.626 106.232 125.171 106.232C124.691 106.256 124.187 106.375 123.707 106.375C123.203 106.375 122.844 106.16 122.364 106.256C121.956 106.327 121.908 106.687 121.404 106.375C121.164 106.232 121.116 105.68 120.78 105.68C120.325 105.68 120.517 106.256 120.253 106.543C120.181 105.704 119.533 107.095 119.269 106.064C119.029 106.399 118.142 106.879 117.734 106.615C117.35 106.375 117.47 105.8 117.302 105.392C117.038 106.112 116.318 106.879 116.366 105.56C116.006 105.992 115.071 105.92 115.311 106.687C115.023 106.687 114.951 106.28 114.711 106.232C114.495 106.208 114.327 106.375 114.303 106.351C114.423 106.351 113.967 106.519 113.967 106.519C114.279 106.447 113.08 106.351 113.272 106.351C112.984 106.351 112.648 106.567 112.336 106.567C112.048 106.567 111.736 106.447 111.448 106.423C110.681 106.327 110.849 106.495 110.369 106.735C110.201 106.831 110.153 106.975 109.889 106.951C109.697 106.927 109.625 106.687 109.625 106.687C109.361 106.663 109.553 106.567 109.145 106.615C109.097 106.687 109.049 106.783 109.001 106.855C108.94 106.946 108.847 107.011 108.741 107.037C108.635 107.064 108.522 107.05 108.426 106.999C107.826 107.119 105.859 107.671 106.051 106.663C105.739 106.807 105.451 106.951 105.139 107.095C105.019 106.28 103.364 107.359 103.004 107.431C102.524 107.503 102.5 107.311 102.044 107.215C101.972 107.191 101.804 107.455 101.613 107.431C101.133 107.335 101.037 107.287 100.965 106.759C100.605 107.407 100.317 107.119 99.6934 107.215C99.5494 107.239 99.4535 107.503 99.2616 107.455C99.1176 107.431 99.1176 107.167 99.0217 107.119C98.9257 107.095 98.9497 106.879 98.8057 106.855C98.6618 106.831 98.134 107.239 97.9901 107.311C97.6542 107.455 97.1025 107.695 96.7906 107.623C96.3828 107.527 96.5747 107.239 95.9989 107.263C95.0873 107.311 94.7275 108.078 94.1757 106.879C93.9118 107.359 93.9598 107.503 93.552 107.647C93.2641 107.767 92.4964 107.647 92.0886 107.623C90.4093 107.551 88.754 108.126 87.0747 107.982C86.331 107.91 85.7313 107.767 84.9876 107.886C84.2199 108.006 83.4523 108.198 82.6606 108.27C82.2528 108.318 81.4131 108.414 81.2212 107.91C81.1252 107.503 81.773 107.191 81.4131 106.687ZM84.6997 125.227C82.5167 126.69 80.6934 128.681 78.7023 130.384C76.6871 132.087 75.0798 133.958 73.2806 135.853C71.6013 137.579 70.0659 139.234 68.0508 140.554C66.7793 141.393 65.6278 142.4 64.3084 143.192C63.3248 143.768 61.8374 144.559 62.3172 142.76C62.821 140.913 63.7086 139.067 64.5003 137.34C65.6278 134.893 66.7553 132.471 67.9788 130.096C68.4346 129.209 68.6985 128.297 69.4182 127.578C70.2099 126.786 70.7616 125.779 71.6253 125.036C75.2477 121.918 80.7174 124.316 84.6997 125.227ZM91.5608 126.283C90.5772 126.81 89.4497 126.93 88.4182 127.266C87.5305 127.554 86.6909 128.082 85.7313 128.13C86.6189 127.482 87.3626 126.571 88.3462 126.067C89.4497 125.515 90.4573 125.923 91.5608 126.283ZM135.126 130.624C131.48 129.401 128.073 127.578 124.523 126.115C123.899 125.851 119.101 124.292 119.197 123.524C122.556 122.901 126.034 121.846 129.393 122.997C132.463 124.052 134.958 126.571 137.333 128.657C137.957 129.209 141.772 131.703 141.436 132.495C141.196 133.046 139.349 132.902 138.917 132.783C138.365 132.639 138.029 132.303 137.597 131.919C136.858 131.343 136.021 130.905 135.126 130.624ZM128.385 110.045C128.937 109.541 129.273 108.75 129.801 108.294C130.472 107.695 131.576 107.982 132.32 108.294C134.551 109.23 136.47 110.813 138.677 111.796C141.124 112.875 143.259 114.338 145.49 115.849C147.505 117.217 149.712 118.368 151.775 119.663C153.886 121.006 156.237 121.87 158.372 123.165C160.556 124.484 162.715 125.779 164.802 127.242C168.52 129.808 172.406 132.471 175.165 136.116C176.615 138.042 177.884 140.097 178.956 142.256C179.891 144.175 180.923 146.838 179.699 148.852C178.524 150.771 176.509 152.282 174.829 153.721C174.182 154.273 173.582 154.92 172.742 155.16C171.735 155.448 170.535 155.376 169.504 155.448C163.938 155.904 158.732 155.472 153.263 154.489C147.961 153.529 142.659 153.002 137.309 152.33C134.311 151.946 131.288 151.515 128.313 150.891C127.042 150.627 125.746 150.315 124.523 149.956C123.443 149.644 122.532 148.924 121.404 148.66C116.678 147.485 111.256 147.029 106.578 145.039C110.729 143.312 115.119 142.28 119.389 140.841C123.851 139.33 128.217 138.059 132.943 137.651C135.366 137.436 137.549 136.812 139.876 136.164C142.107 135.541 144.41 135.349 146.713 135.085C147.721 134.965 150.624 135.157 150.96 133.814C151.463 131.847 148.609 131.607 147.409 131.775C145.682 132.015 144.266 132.447 142.947 131.032C141.604 129.593 140.284 128.106 138.917 126.69C136.374 124.052 133.759 121.006 130.16 119.807C125.77 118.368 120.708 119.735 116.318 120.55C111.712 121.414 107.082 122.253 102.548 123.5C100.677 124.028 98.254 125.179 96.3108 124.988C94.3916 124.796 92.2085 124.484 90.3613 123.932C89.5217 123.692 88.826 123.213 88.0823 122.781C87.0987 122.229 86.0432 121.87 85.0116 121.414C82.9245 120.526 80.8854 119.711 78.6063 119.375C76.7111 119.087 74.672 118.919 72.8248 119.567C71.0255 120.215 69.4182 121.558 68.1468 122.973C66.7793 124.508 65.6518 126.259 64.5243 127.986C63.9965 128.825 63.3248 129.545 62.773 130.36C62.2932 131.032 62.0294 131.799 61.5256 132.471C60.422 133.958 59.6544 135.853 58.9826 137.579C58.239 139.498 57.3993 141.777 57.5912 143.839C57.6632 144.631 57.7352 145.662 58.0231 146.406C58.4069 147.341 58.9587 147.317 59.7503 147.653C61.1177 148.253 61.5016 149.908 63.2768 149.596C64.9321 149.284 66.3715 147.917 67.571 146.838C69.1543 145.422 70.6657 143.935 72.1531 142.424C73.7365 140.89 75.1741 139.212 76.4472 137.412C76.927 136.692 77.3109 135.901 77.8866 135.253C78.6063 134.437 79.446 134.342 80.4295 134.006C89.0899 131.152 97.7982 128.393 106.722 126.499C108.857 126.043 111.017 125.467 113.128 124.868C115.359 124.22 116.51 124.916 118.357 126.115C122.196 128.657 126.754 130.456 131.024 132.111C132.367 132.639 134.527 132.663 135.582 133.694C129.345 134.653 123.395 136.476 117.374 138.299C114.399 139.186 111.4 139.978 108.426 140.841C105.451 141.705 102.572 142.808 99.6454 143.792C96.7186 144.751 93.6239 145.159 90.6732 146.046C87.678 146.92 84.6341 147.617 81.5571 148.133C78.4384 148.684 75.3197 149.332 72.177 149.836C70.7377 150.075 69.2983 150.291 67.8829 150.627C66.4915 150.939 65.148 151.682 63.7566 151.85C57.5193 152.618 51.4019 154.321 45.1885 155.28C40.5585 156 32.4739 157.007 29.4752 152.354C26.4525 147.677 30.1709 142.209 33.4815 138.875C35.5553 136.808 37.8295 134.952 40.2706 133.334C42.8615 131.583 45.3564 129.713 47.9713 127.962C53.8488 124.028 60.2301 120.814 66.5394 117.648C69.5622 116.137 72.4889 114.506 75.4397 112.827C76.903 112.012 77.7187 113.331 78.8702 114.242C79.7818 114.962 81.4611 116.713 82.7326 115.897C82.7805 116.185 82.8285 116.473 82.8765 116.785C83.2603 116.617 83.6202 116.449 84.004 116.281C84.2439 116.929 84.2199 117.336 84.9156 117.696C85.3475 117.912 86.2591 118.152 86.6669 117.792C86.7389 118.056 86.8348 118.32 86.9068 118.56C87.2666 118.536 87.3386 117.504 87.4106 117.264C88.0343 118.152 88.874 118.919 89.9535 119.159C89.9535 119.111 89.7856 118.368 89.7856 118.368C90.1214 118.152 90.5532 119.063 90.7452 119.255C91.3449 119.879 91.7048 119.783 92.3765 119.279C92.4244 119.327 92.6404 119.927 92.6883 119.903C92.8323 119.855 93.0962 119.327 93.1441 119.303C93.0962 119.975 94.4156 120.119 94.8954 119.975C94.7994 119.783 94.6795 119.567 94.5835 119.375C96.2148 119.159 96.8386 120.886 98.3979 120.79C99.5494 120.718 98.6138 120.478 99.2855 119.975C99.8613 119.543 99.9573 120.478 100.005 120.454C100.114 120.343 100.204 120.213 100.269 120.071C100.485 120.886 102.164 121.606 101.972 120.263C102.62 120.526 103.1 120.958 103.82 121.054C104.707 121.174 105.643 120.982 106.53 120.91C108.426 120.742 110.225 120.359 111.952 119.495C112.96 118.967 114.063 118.512 115.023 117.888C115.815 117.36 117.35 115.777 118.405 116.473C118.142 115.658 119.413 116.425 119.461 115.37C119.677 115.514 119.869 115.682 120.085 115.825C120.205 115.562 120.181 115.13 120.349 114.89C120.565 114.554 120.684 114.746 120.876 114.578C121.092 114.362 121.284 113.835 121.548 113.667C121.812 113.499 122.124 113.691 122.412 113.547C122.844 113.331 124.739 111.244 124.427 113.043C125.243 112.755 124.619 112.516 124.715 111.964C124.931 110.885 125.41 111.652 125.914 111.748C126.73 111.892 126.706 111.244 127.162 110.741C127.57 110.285 128.361 110.093 128.073 109.326C128.289 109.422 128.337 109.733 128.385 110.045ZM79.5419 86.852C78.8942 87.5715 78.4144 87.2597 77.7187 87.1638C77.6467 86.8999 77.5028 86.876 77.3349 87.0678C77.1252 87.183 76.8984 87.264 76.6631 87.3077C76.0874 87.4516 75.4876 87.3796 74.9119 87.5955C74.9359 87.4036 75.1278 87.0678 75.0078 86.8759C74.4081 87.2837 74.0482 87.5475 73.3046 87.5715C72.7048 87.5715 71.6733 87.1158 71.1695 87.6674C71.1455 87.4516 71.1455 87.2357 71.1215 87.0438C70.8847 87.1623 70.673 87.3251 70.4978 87.5235C70.5063 87.2294 70.4131 86.9414 70.2339 86.7081C69.85 87.5235 69.4182 87.5475 68.6505 87.2357C68.7465 87.2837 67.8829 86.756 67.9069 86.8999C67.643 85.7487 71.9851 85.8446 72.4409 85.7966C73.5924 85.6767 74.72 85.6048 75.8715 85.5088C76.951 85.4129 77.7667 85.245 78.5104 86.1564C78.1505 84.8133 81.3172 84.8852 79.5419 86.852ZM29.6191 66.5849C29.7391 68.5517 30.1709 70.6623 29.4032 72.5571C28.7795 74.0921 27.556 75.819 26.2365 76.8024C23.5257 78.8411 21.2227 76.3467 20.8388 73.5885C20.455 70.7343 21.2227 67.2325 23.6936 65.4577C25.157 64.4023 26.5964 64.4743 28.2997 64.8341C28.7075 64.906 29.3552 64.882 29.5711 65.2898C29.5951 65.3857 29.5471 66.5849 29.6191 66.5849ZM65.6998 92.8961C65.22 93.1359 64.7402 93.2798 64.3324 93.5917C64.1884 93.7116 64.1405 93.9514 63.9965 94.0474C63.7086 94.2152 63.3248 94.0953 63.0369 94.2392C62.5571 94.4791 62.2213 94.8149 61.6455 95.0307C60.8308 95.3741 60.0377 95.7665 59.2705 96.206C57.9208 96.8946 56.5354 97.511 55.1203 98.0528C54.4246 98.3406 52.4814 98.8923 52.5534 99.9236C52.3854 99.9716 52.2415 99.6118 51.9056 99.6598C51.4498 99.7077 50.8501 100.211 50.3943 100.355C49.5307 100.595 48.8349 100.619 48.8349 101.722C48.5471 101.531 48.4751 101.075 48.1153 101.003C47.7074 100.931 47.5155 101.387 47.1797 101.531C46.7958 101.698 46.292 101.531 45.9082 101.722C45.7325 101.901 45.5396 102.062 45.3324 102.202C45.1247 102.231 44.9136 102.222 44.7087 102.178C43.893 102.346 43.1254 102.658 42.2857 102.826C41.4701 102.994 40.9183 103.042 41.2542 104.001C40.3905 104.169 40.1746 103.257 39.215 103.593C38.0524 103.986 36.8667 104.306 35.6645 104.553C35.0408 104.673 34.3691 104.96 33.7214 105.032C33.2656 105.08 32.8337 104.912 32.3779 104.96C31.8262 105.032 31.3944 105.272 30.8426 105.272C30.3037 105.252 29.7667 105.196 29.2353 105.104C29.3067 105.315 29.4034 105.516 29.5232 105.704C29.1633 105.632 28.9954 105.2 28.6835 105.128C28.3716 105.056 28.0838 105.392 27.7959 105.32C27.6759 105.296 27.7479 104.936 27.556 104.864C27.3641 104.792 27.2921 104.864 27.1002 104.84C27.0282 104.84 26.2605 104.792 26.1406 104.864C25.9247 104.984 26.1406 105.2 26.0926 105.224C25.3729 105.752 25.3489 105.464 25.0371 104.912C24.5573 104.097 23.9815 104.601 23.1179 104.457C22.1583 104.289 21.3906 104.721 20.455 104.649C19.4234 104.577 18.2479 103.809 17.3363 103.377C15.3931 102.418 13.498 101.507 11.8666 100.044C8.676 97.1893 6.06111 93.6876 4.52576 89.6822C2.87047 85.3649 2.5586 80.8798 2.70254 76.2987C2.75761 73.5504 3.00612 70.8094 3.44622 68.096C3.7341 66.2252 3.80607 62.9153 5.91717 62.0518C6.27702 66.417 5.12551 70.8782 5.86919 75.2434C6.0851 76.5626 6.61288 78.2895 7.62045 79.2728C9.10782 80.7119 9.44367 78.6252 9.58761 77.4979C9.82751 75.3633 10.3073 73.2527 10.6192 71.142C10.955 69.0314 11.1709 66.8727 11.6267 64.7861C11.7947 64.0186 13.1381 58.4302 14.1217 58.694C13.9298 62.7714 13.402 66.7768 13.378 70.8542C13.378 72.4852 13.2341 74.2121 13.45 75.843C13.5699 76.6825 14.3376 79.1289 15.657 78.937C16.8805 78.7452 15.5371 77.0183 15.4171 76.3467C15.1053 74.5718 15.4891 72.3892 15.777 70.6144C16.3048 67.3045 17.4803 63.8987 19.4234 61.1164C21.1507 58.622 23.8136 56.2715 27.0282 56.7033C28.3956 56.8951 29.4752 57.2309 30.1709 58.4781C30.7226 59.4615 32.8337 60.5888 31.6103 61.812C30.4827 62.9393 28.6595 62.0279 27.412 61.764C26.6459 61.6129 25.857 61.6201 25.0938 61.7851C24.3306 61.9501 23.6092 62.2694 22.9739 62.7234C20.7909 64.2584 19.5194 67.0167 19.1116 69.583C18.5598 73.0608 20.0232 82.151 25.4449 80.1123C29.0434 78.7691 31.7542 73.8763 31.4423 70.1587C31.3224 68.6716 30.7466 65.8414 32.8098 65.4337C35.4486 64.906 35.8325 67.8321 35.5686 69.7269C35.1847 72.4852 33.7214 75.0515 32.0421 77.2341C30.5787 79.1289 28.8994 80.3281 27.1482 81.8871C26.6204 82.3428 25.3009 83.3982 25.5408 84.2616C25.7807 85.197 27.8679 85.4848 28.6835 85.6288C32.7858 86.3963 37.4398 85.7007 41.542 85.1491C49.9865 84.0458 58.3109 81.3115 65.22 76.3227C65.5079 79.4167 65.8437 82.5107 65.9877 85.6048C66.0596 87.1158 66.0596 88.6508 66.2276 90.1379C66.3715 91.0972 66.7553 92.3684 65.6998 92.8961ZM42.3097 103.689C41.9739 103.857 42.3337 102.826 42.2378 103.162C42.7415 103.329 42.7655 103.521 42.3097 103.689ZM77.3109 66.2252C77.8386 65.6495 79.278 64.2584 79.7338 65.5776C79.9018 65.0259 79.9258 64.1865 80.5735 64.954C80.8374 64.0186 83.7161 64.1145 84.4119 64.0666C86.6909 63.9466 88.9939 63.8747 91.249 63.6348C95.927 63.1791 100.677 63.419 105.355 63.395C106.372 63.355 107.39 63.3871 108.402 63.4909C109.385 63.6348 110.393 64.0426 111.376 63.8747C112.264 63.7547 112.84 63.4909 113.751 63.6108C114.826 63.7432 115.907 63.8153 116.99 63.8267C121.836 63.8027 126.682 63.9946 131.528 64.0186C132.463 64.0186 133.615 63.8267 134.479 64.2344C134.814 64.3783 135.174 64.882 135.414 64.93C135.702 65.002 135.534 64.5462 135.918 64.7381C136.422 65.002 136.038 65.8414 135.702 65.9853C135.894 65.9134 135.342 65.8174 135.39 65.8174C135.126 65.8414 134.886 66.0333 134.599 66.0333C134.167 66.0093 133.783 65.7455 133.423 65.5056C133.423 65.6016 133.615 66.2492 133.399 66.2731C133.207 66.2971 133.015 65.6735 133.015 65.5056C131.936 66.465 130.784 65.9374 129.441 66.0573C128.481 66.1532 126.49 66.7768 125.842 65.7934C125.82 66.002 125.727 66.1966 125.578 66.3451C125.386 66.6329 125.219 66.6089 125.075 66.2731C125.027 66.2731 124.571 66.3691 124.547 66.3691C124.211 66.3451 123.803 66.2252 123.467 66.2012C122.963 66.1532 123.059 66.537 122.628 66.537C122.412 66.537 121.836 66.2252 121.452 66.2012C120.78 66.1772 120.085 66.441 119.413 66.3691C118.957 66.3211 118.549 65.9374 118.094 65.9134C117.542 65.8894 117.35 66.3211 116.918 65.7215C116.822 65.6975 116.774 66.0573 116.726 66.0573C116.726 66.0573 116.294 66.1292 116.246 66.1292C116.074 66.2037 115.898 66.2678 115.719 66.3211C115.503 66.3211 115.359 66.1532 115.119 66.1532C114.711 66.1532 113.464 66.489 113.488 65.7695C112.072 66.2971 110.849 66.0813 109.409 66.2252C108.83 66.2618 108.248 66.2133 107.682 66.0813C106.89 65.9374 106.363 66.1292 105.571 66.1532C104.803 66.2012 104.563 65.8654 103.916 65.5776C103.652 65.4577 103.484 65.3138 103.172 65.3857C103.004 65.4337 103.124 65.7215 103.076 65.7455C102.812 65.8414 102.62 65.7455 102.236 65.7695C101.541 65.8174 101.277 66.3931 100.557 65.8414C100.797 65.8174 101.037 65.7934 101.277 65.7455C100.605 65.4577 99.6934 65.3138 99.8613 66.3691C99.2855 66.2971 99.7893 65.8894 99.5014 65.7455C99.2136 65.6016 98.9017 65.8414 98.5419 65.9613C97.5823 66.2731 96.7906 66.1052 95.807 66.0573C94.6795 65.9853 92.0406 66.9207 91.249 65.7215C91.225 65.9613 90.9611 66.6809 90.6012 66.6329C90.4813 66.6329 90.8171 65.8894 90.8411 65.7934C90.6492 66.1772 89.8096 66.2731 89.4017 66.465C89.4497 66.2492 89.4977 66.0333 89.5457 65.8414C89.1618 66.2492 88.9699 66.0093 88.5141 66.1292C88.3222 66.2012 88.0343 66.6089 87.8664 66.6329C87.7816 66.5204 87.667 66.4339 87.5356 66.383C87.4042 66.3322 87.2612 66.319 87.1227 66.3451C86.9258 66.3012 86.7227 66.2931 86.523 66.3211C85.7313 66.3691 85.0116 66.8248 84.2199 66.513C83.5242 66.2492 83.2603 65.5776 82.8525 66.6569C82.7566 66.465 82.6366 66.2731 82.5406 66.0813C82.3967 66.2971 82.2768 66.489 82.1328 66.7049C81.605 66.3691 81.5811 66.1772 80.9813 66.2971C80.9115 66.3229 80.8372 66.3341 80.7629 66.33C80.6886 66.3259 80.616 66.3065 80.5495 66.2731C80.5255 66.3691 80.4775 66.489 80.4535 66.5849C80.4295 66.8488 80.3576 66.9447 80.2136 66.8488C80.1015 66.7992 79.9965 66.7347 79.9018 66.6569C79.5179 66.6809 79.0141 66.8008 78.5823 66.7288C78.4144 66.6809 77.3828 66.1532 77.3109 66.2252ZM89.4017 59.1497L89.5457 59.3656C88.8979 59.7013 88.754 59.5095 88.682 58.8379C88.9939 58.8379 89.0419 59.3895 89.4017 59.1497ZM89.7856 58.7659C90.0974 58.9098 90.4573 59.1737 90.7452 58.8139C90.9371 59.3656 89.4737 60.157 89.7856 58.7659ZM91.7767 59.0058C92.4244 59.4375 90.8651 59.1017 90.8651 59.1017C90.9801 58.9788 91.1356 58.9014 91.303 58.8838C91.4705 58.8661 91.6386 58.9095 91.7767 59.0058ZM97.3664 56.5594C97.5823 57.6866 98.206 57.6387 99.1896 57.135C100.629 56.3675 100.869 55.1203 100.989 53.6332C101.085 52.2181 101.253 51.6665 102.74 51.9543C103.772 52.1702 104.635 51.9783 105.667 51.9543C106.77 51.9303 107.154 52.0982 107.25 53.2255C107.346 54.3528 107.538 55.2162 108.378 56.1036C109.217 56.9911 110.345 57.5187 111.424 57.9984C111.976 58.2623 112.504 58.5261 113.128 58.5741C113.368 58.598 114.615 58.4302 114.639 58.8379C114.663 59.1257 112.936 59.9652 112.744 60.0851C111.951 60.5355 111.115 60.9051 110.249 61.1884C108.234 61.788 106.099 61.836 103.988 61.788C100.605 61.74 95.951 60.301 93.9358 57.3029C95.0633 57.063 96.2148 56.8232 97.3664 56.5594ZM97.0545 46.8696C96.5267 46.4138 96.1669 45.7423 95.735 45.2146C95.573 45.0125 95.3681 44.8486 95.1353 44.7349C94.9194 44.591 94.7755 44.7829 94.6075 44.4711C94.1277 43.6076 95.6151 42.4084 94.0318 42.0726C93.504 41.9527 92.2085 42.3844 92.0646 41.6169C91.8487 40.5376 93.9118 40.4657 94.3916 39.914C95.3512 38.8107 94.7035 36.9639 95.3032 35.7167C95.855 34.5175 97.2944 34.3016 98.4459 33.9418C100.029 33.4382 101.637 33.1503 103.244 32.7426C104.371 32.4548 106.243 31.3275 107.274 32.3349C105.667 32.6946 106.602 33.2463 107.682 33.5581C108.913 33.8898 110.175 34.0908 111.448 34.1577C112.744 34.29 114.052 34.2416 115.335 34.0138C116.51 33.7739 117.83 32.7426 119.077 33.0064C118.381 34.2057 116.342 34.8532 115.095 35.165C114.471 35.3329 114.063 35.285 114.135 36.0765C114.207 36.844 114.879 37.6115 115.047 38.403C115.217 39.424 115.093 40.4726 114.687 41.425C114.327 42.4084 114.231 42.5283 114.543 43.4637C115.047 44.9268 113.967 46.5338 112.96 47.5891C108.881 51.8823 101.133 50.2754 97.0545 46.8696ZM108.618 32.095C108.45 32.2149 107.49 32.4788 107.514 32.095C107.586 31.5913 108.45 31.7832 108.618 32.095ZM110.825 21.8536C110.609 21.6857 109.961 21.7576 110.417 21.11C110.585 21.3979 110.705 21.6137 110.825 21.8536ZM95.5671 17.8002C95.8865 17.0741 96.1355 16.3192 96.3108 15.5456C96.3828 15.0419 96.2388 14.4903 96.9105 14.4183C96.0229 14.0346 96.0229 12.5235 95.9749 11.732C95.903 10.6527 95.5671 9.21366 96.0469 8.2063C96.5267 7.17496 97.1984 7.19895 97.3903 8.42217C97.4623 8.90186 97.1744 9.06975 97.1265 9.40554C97.0065 10.0771 97.2464 9.9332 97.6542 9.42952C97.8222 9.9332 97.8941 10.7247 98.6138 10.6767C98.5658 10.5328 98.302 10.221 98.3739 10.0531C98.5179 9.78929 99.2136 10.197 99.2855 10.245C99.9093 10.6767 100.053 11.0845 99.5974 11.6361C100.221 11.7081 99.6934 12.2597 100.101 12.3796C100.725 12.5955 100.293 11.5642 100.245 11.3963C100.55 11.5123 100.811 11.7223 100.989 11.9959C101.131 12.1949 101.259 12.4032 101.373 12.6195C101.493 13.0272 101.756 13.1232 102.164 12.9313C102.956 13.1711 104.06 13.1471 104.779 13.5789C105.115 13.7707 105.211 14.2025 105.499 14.3704C105.811 14.5622 106.219 14.4663 106.554 14.5862C106.435 14.8501 106.53 15.0179 106.842 15.0179C107.089 15.0395 107.331 15.096 107.562 15.1858C107.732 15.059 107.917 14.9542 108.114 14.874C108.137 14.9263 108.171 14.9729 108.214 15.0106C108.257 15.0482 108.308 15.076 108.363 15.092C108.417 15.108 108.475 15.1118 108.532 15.1032C108.588 15.0945 108.642 15.0736 108.69 15.0419C109.286 15.1476 109.832 15.4419 110.249 15.8814C110.657 16.2651 110.321 16.2891 110.777 16.2412C110.969 16.2172 111.28 15.9054 111.712 15.9773C111.951 16.0238 112.185 16.0962 112.408 16.1932C112.506 16.2957 112.637 16.3595 112.778 16.3727C112.919 16.3859 113.061 16.3477 113.176 16.2651C113.607 16.481 113.655 16.8648 114.207 16.9127C114.807 16.9607 114.615 16.2172 115.023 17.2725C115.575 16.1692 115.791 17.9441 116.342 18.088C116.942 18.2319 116.99 17.7522 117.494 18.2799C117.638 18.4477 117.638 18.6876 117.806 18.8555C118.094 19.1193 118.453 19.0713 118.717 19.4551C118.573 19.2392 118.741 20.1986 118.741 20.1507C118.789 20.5584 118.405 21.0381 119.173 20.9901C119.173 21.0381 118.789 21.5658 118.741 21.4938C118.717 21.4218 118.717 21.3739 118.693 21.3019C118.621 21.3259 118.573 21.8536 118.597 21.9255C118.669 21.9255 118.693 21.8776 118.669 21.7816C118.549 22.1654 118.741 22.4292 118.501 22.789C118.357 23.0288 117.926 23.1967 117.71 23.3406C117.182 23.7004 116.654 24.0362 116.126 24.4199C114.903 25.2834 113.535 26.3387 112 26.5306C112.768 25.7631 117.23 22.9089 114.999 22.0694C114.474 21.9094 113.936 21.797 113.392 21.7336C112.864 21.6857 112.288 21.9975 111.712 21.8056C110.993 21.5658 111.256 20.8942 110.825 20.6543C109.889 20.1507 110.105 21.3499 109.817 21.6617C109.505 21.3499 109.577 21.182 109.097 21.158C108.594 21.134 108.498 21.5897 107.922 21.3019C107.13 20.9182 107.538 20.1267 106.435 20.1267C106.458 19.9588 106.626 19.4791 106.411 19.3352C106.123 19.7189 106.339 20.1267 106.075 20.4864C105.905 20.6801 105.678 20.8146 105.427 20.8702C104.923 21.0141 104.851 21.2779 104.947 20.5104C104.587 21.182 103.436 20.8942 102.764 20.8462C101.639 20.7428 100.529 20.5177 99.4535 20.1746C98.4939 19.8389 97.9661 19.2872 97.1744 18.7835C96.8626 18.5917 96.7186 18.6636 96.2868 18.5437C95.783 18.5437 95.3512 18.3038 95.5671 17.8002ZM97.8701 6.0237C98.0381 5.92776 98.158 7.41481 97.9421 7.67864C97.5823 7.10301 96.9345 6.26355 97.8701 6.0237ZM98.3979 5.42409C98.9257 4.94439 98.5658 6.19159 98.4699 6.38347C98.278 6.26355 98.086 6.11964 97.8701 5.99972C98.11 5.87979 98.182 5.61596 98.3979 5.42409ZM118.429 3.43336C123.347 4.4647 128.193 6.38347 132.128 9.54944C135.702 12.4276 138.245 16.529 139.66 20.8702C141.124 25.3793 140.644 30.3921 137.141 33.8699C135.294 35.6927 132.871 36.796 130.544 37.8513C129.441 38.355 128.289 38.7867 127.162 39.2904C126.37 39.6502 125.386 40.2258 124.475 40.1299C124.931 39.6502 125.626 39.6262 126.178 39.3384C126.85 38.9786 127.426 38.2831 128.001 37.7794C128.577 37.2757 129.873 35.7167 130.784 36.1004C130.664 35.261 131.6 34.8772 132.032 34.3496C132.487 33.7739 132.511 33.1024 133.351 32.9105C132.463 32.2149 132.727 30.8958 132.919 29.9604C133.143 28.7795 133.296 27.586 133.375 26.3867C133.543 24.1561 133.687 21.3259 132.463 19.3592C132.056 18.7116 131.552 18.1359 131.192 17.4884C130.76 16.6969 130.856 16.0013 130.856 15.1139C130.064 15.6415 129.897 14.5622 129.585 14.0346C129.345 13.6508 129.009 13.411 128.937 12.9313C128.889 12.5715 129.273 12.4996 129.057 12.1398C128.793 12.3317 128.697 12.6435 128.553 12.9313C128.313 12.8353 128.601 12.4996 128.457 12.3796C128.457 12.3796 127.977 12.1638 128.001 12.2117C127.689 11.828 127.594 11.2044 127.45 10.7487C126.898 11.0365 126.994 10.9885 126.394 10.5328C126.137 10.3738 125.903 10.1801 125.698 9.95718C125.458 9.38155 125.866 9.71734 125.77 9.35757C125.434 8.32623 123.563 8.5181 123.395 6.98309C122.484 7.55872 122.124 6.74324 121.596 6.14362C121.044 5.54401 120.109 5.30416 120.157 4.36876L119.293 4.65658C119.437 3.76915 118.142 3.8411 117.662 3.38539C117.919 3.37831 118.175 3.39437 118.429 3.43336ZM119.173 57.9025C119.629 57.4948 119.485 58.0464 119.773 57.9744C120.013 57.9265 120.061 57.7346 120.301 57.6626C121.284 57.4228 122.772 57.7346 123.803 57.6626C125.003 57.6147 127.066 57.8545 127.642 59.2696C127.977 60.1091 127.45 59.8213 126.874 59.7733C126.441 59.7653 126.009 59.7813 125.578 59.8213C125.363 59.8452 125.146 59.8452 124.931 59.8213C124.833 59.7527 124.764 59.65 124.739 59.5334C124.115 59.4375 123.467 59.7973 122.772 59.8213C121.86 59.8452 121.044 59.6774 120.349 59.0538C120.061 59.4615 119.893 59.6774 119.389 59.7253C119.365 59.7253 118.885 59.5335 118.813 59.5095C118.717 59.4855 118.453 59.7013 118.261 59.6294C118.621 59.0538 118.669 58.3582 119.173 57.9025ZM181.811 62.7954C181.978 62.2437 182.098 61.6681 182.266 61.0924C184.521 63.6588 186.513 67.1126 187.4 70.4225C187.976 72.5811 188.887 76.4666 186.129 77.5699C183.874 78.4813 182.626 75.2434 182.05 73.6364C180.779 70.1347 180.779 66.3691 181.811 62.7954ZM80.5255 22.4292C80.5495 22.4292 79.0621 23.2926 79.5419 22.5971C79.7338 22.3093 80.5015 22.1174 80.8134 22.1174L80.5255 22.4292ZM79.1101 22.813C78.9422 22.9569 78.7742 23.1008 78.5823 23.2447L78.0785 22.4532C78.3904 22.2853 79.8058 22.1894 79.1101 22.813ZM78.0546 49.8197C77.7427 49.6038 77.5028 49.7237 77.4068 50.0835C77.4068 49.7237 77.5987 48.9082 77.8626 48.8123C78.0546 48.7404 77.2629 47.805 77.4788 47.5651C78.0546 47.8769 77.6947 48.1887 77.8626 48.6204C77.9346 48.8123 78.1505 48.9802 78.2225 49.1241C78.2944 49.364 78.6303 50.2274 78.0546 49.8197ZM76.5192 47.709C76.2073 47.781 76.7591 48.3086 76.7591 48.5485C76.7591 48.7164 76.5432 48.8603 76.4472 49.1001C76.2553 49.6278 76.5912 49.9876 76.0394 50.3713C76.0394 49.2201 75.2717 46.174 76.7591 45.6224C76.0394 45.0467 76.6392 44.3991 77.1909 45.0707C77.7427 45.7423 77.4068 47.4932 76.5192 47.709ZM75.7515 43.1759C75.4637 42.1446 74.576 41.7848 73.5924 41.8568C73.6404 41.3291 74.0243 40.5616 74.3121 41.521C74.4321 41.2332 74.5041 40.8734 74.7919 40.6815C75.2477 42.1206 77.5268 42.9121 76.1114 44.4471C75.9674 44.0394 75.8715 43.6076 75.7515 43.1759ZM73.0887 41.9287C67.8109 42.3125 60.422 43.4158 56.1998 39.3624C53.441 36.7241 53.6089 32.6227 55.816 29.6965C57.0874 28.0176 58.8147 26.8424 60.542 25.7391C61.1524 25.3337 61.8139 25.0111 62.5091 24.7797C62.626 24.7662 62.744 24.7914 62.845 24.8516C62.8641 24.7681 62.9022 24.69 62.9562 24.6235C63.0103 24.5569 63.079 24.5037 63.1569 24.4679C63.4448 24.324 63.8526 24.252 64.0205 23.9402C63.8602 24.5379 63.7479 25.1475 63.6846 25.7631L63.2528 25.2594C63.1329 26.3867 61.9574 25.6911 61.2617 25.835C61.7175 26.4586 62.0533 26.6985 62.0773 27.5379C61.7415 26.9143 61.0218 26.4826 60.3501 26.2907C60.7099 27.3461 60.9738 27.9936 60.614 29.1689C60.1821 28.929 60.1581 28.3294 59.6064 28.1855C59.4624 28.8811 59.4384 29.6486 59.2705 30.3201C57.9031 29.6965 58.047 31.3755 58.5988 32.1909C58.8867 32.6227 59.0306 33.1503 59.2945 33.5581C59.9422 34.5894 59.4385 33.0544 60.1581 33.1264C59.9902 34.2296 59.9422 34.3256 60.7339 35.1171C61.5256 35.9086 61.9094 36.9879 62.749 37.7074C62.9889 37.3956 62.6051 37.0838 62.5811 36.772C63.3488 36.8919 63.7326 37.6834 64.4763 36.9879C64.8122 37.6115 65.148 38.331 65.9397 38.4509C65.4359 37.4676 66.9233 38.1391 67.3071 38.2831C67.595 38.379 68.1228 38.4749 68.2427 38.5229C68.8904 38.7627 68.4346 38.331 68.8185 39.0985C69.3942 38.9306 69.6101 38.4509 70.2818 38.8587C70.8336 39.1705 70.8336 39.7461 70.9536 40.2978C71.0735 39.938 71.2175 39.5542 71.3614 39.1945C71.5053 39.2664 72.1291 39.938 72.0571 39.938C73.5685 39.866 73.5205 40.7775 73.0887 41.9287ZM65.6998 23.4366C65.9877 23.2207 66.3475 23.5085 66.6834 23.4366C67.1392 23.3406 67.4031 22.9569 67.9069 22.9089C67.7629 23.3646 67.499 23.3166 67.2831 23.6764C67.2112 23.7963 67.2351 24.0841 67.1872 24.1561C66.6114 24.7317 66.4195 24.252 65.8437 23.8203C65.8917 24.348 65.9877 24.5159 65.5079 24.6598C65.0521 24.7797 64.3084 24.324 64.0685 23.9402C64.2364 23.5565 65.34 23.6764 65.6998 23.4366ZM69.3223 22.5971C69.826 22.6451 69.2263 24.0841 68.5066 22.693C68.775 22.6361 69.048 22.6039 69.3223 22.5971ZM71.8412 22.3333C72.6089 22.1654 75.1998 21.4458 75.4876 22.6451C75.5356 22.6211 75.7275 21.9255 75.8235 22.0215C76.1833 22.3572 76.2313 22.789 76.1833 23.2687C75.7515 22.3572 75.8955 23.1487 75.6076 23.1008C75.5356 23.0768 75.4157 23.2207 75.2238 23.1727C74.9599 23.1008 74.7919 22.5491 74.624 22.3812C74.3601 22.765 74.0243 23.2447 73.4965 23.2207C73.1127 23.1967 72.5129 22.2133 72.9927 23.2926C72.7048 23.1967 72.369 22.9808 72.0571 23.0288C71.6973 23.0768 71.5053 23.4366 71.1695 23.4845C70.4258 23.6044 70.3058 22.8849 69.826 22.5012C70.4978 22.4292 71.1935 22.4532 71.8412 22.3333ZM76.5432 22.3093C76.5912 22.0694 77.2869 21.9735 77.4548 22.0454C77.8866 22.2373 77.7187 22.5012 77.6467 22.9089C77.3349 22.765 77.023 22.6211 76.7111 22.4532C77.1669 23.2207 76.3273 23.3166 76.5432 22.3093ZM207.983 66.3931C207.935 64.5942 207.887 62.7474 207.408 60.9965C207.096 59.7733 206.304 57.5667 204.817 57.3508C202.586 57.039 201.338 61.4522 200.714 62.9872C200.595 61.1884 200.69 59.2936 200.019 57.5907C199.467 56.2236 198.1 54.9284 196.924 56.4634C195.869 57.8305 195.677 59.8453 195.389 61.4762C195.029 63.5869 194.813 65.7455 194.549 67.8801C193.518 65.8894 193.35 63.6348 192.534 61.5721C191.766 59.6294 190.567 57.7826 189.415 56.0557C188.48 54.6406 187.328 53.3214 185.841 52.458C184.545 51.7145 182.29 50.899 181.067 52.1462C180.035 53.1775 180.203 54.5686 180.251 55.8878C180.275 56.4634 180.371 56.8712 179.843 57.159C179.579 57.3029 179.196 57.2309 178.908 57.3029C178.477 57.4281 178.077 57.6404 177.732 57.9265C175.069 59.8932 173.846 63.4429 173.486 66.6089C173.006 70.6144 174.566 74.0681 175.909 77.7378C176.125 78.3134 176.797 79.5606 176.701 80.2082C176.605 80.9278 175.693 80.9517 175.093 80.9517C173.235 80.9716 171.376 80.8835 169.528 80.6879C165.186 80.2802 160.867 78.1935 156.981 76.3227C156.261 75.9869 155.278 75.795 154.702 75.2434C154.15 74.7397 154.006 73.9242 153.551 73.3486C152.399 71.9335 151.655 70.7343 149.976 69.8708C148.249 69.0074 146.497 68.1919 144.794 67.2325C142.707 66.0573 140.788 64.5462 138.797 63.2271C135.078 60.7807 131.408 58.0704 127.474 55.9837C125.65 55.0243 123.611 54.8564 121.692 54.0649C119.845 53.2974 117.566 53.2974 115.647 53.7771C114.711 54.017 114.063 54.5686 113.2 54.9524C112.192 55.3841 111.352 54.9044 110.465 54.4007C109.097 53.6092 107.754 52.3381 109.697 51.4746C110.345 51.1868 111.184 51.0669 111.76 50.6351C112.384 50.1555 112.864 49.268 113.368 48.6444C114.471 47.3013 115.143 45.7423 116.75 44.9028C118.549 43.9674 120.66 43.7276 122.58 43.1279C124.643 42.4804 126.682 41.6889 128.697 40.9214C132.367 39.5542 136.158 38.0672 138.797 35.0211C141.076 32.4068 142.059 29.025 141.963 25.5952C141.771 18.5917 138.029 11.4682 132.631 7.07903C126.01 1.70647 117.614 -0.0923832 109.265 0.00355541C105.355 0.0515247 100.677 0.555202 97.3903 2.92968C94.5595 4.99236 94.1037 8.59006 94.5116 11.828C94.6795 13.1471 95.2552 14.874 94.3436 16.0493C93.8159 16.6969 92.8803 16.8648 92.1846 17.2725C91.2969 17.7762 90.5293 18.2799 89.5217 18.5437C85.2755 19.695 80.8374 19.2872 76.4952 19.2153C69.2743 19.1193 61.8854 21.0621 56.5117 26.1468C52.1695 30.2482 50.8741 37.9952 56.1518 41.9767C60.422 45.2146 67.1392 44.8548 72.201 44.2792C73.7604 44.1113 74.8399 43.8475 74.8399 45.7663C74.8399 47.8529 74.5041 50.0355 75.0318 52.0982C75.8715 55.3361 78.9902 55.4081 81.725 54.7125C83.1682 54.3249 84.5797 53.8277 85.9472 53.2255C87.9623 52.386 89.8096 51.1388 91.8247 50.2754C93.1681 49.6997 94.1997 51.5466 95.3992 50.2754C95.6151 50.0355 95.6631 49.6758 95.9989 49.5558C96.5267 49.364 97.3903 50.0355 97.8701 50.2514C98.5658 50.5632 99.2616 50.803 99.5254 51.5705C99.7893 52.2901 99.6694 53.4174 99.4295 54.1129C98.9017 55.6479 97.4623 55.3361 96.1429 55.2402C93.8399 55.0723 91.5608 54.6885 89.2818 54.5207C87.2187 54.3768 85.2995 55.0004 83.5242 56.0077C79.8058 58.1423 76.7351 61.5242 73.5205 64.3064C71.8652 65.7455 70.2579 67.2805 68.4346 68.5517C67.643 69.1033 66.8033 69.583 66.1076 70.2786C65.4359 70.9501 65.3639 71.5498 65.124 72.4372C64.7162 74.0202 62.6531 74.8117 61.3816 75.6272C59.569 76.7633 57.6284 77.6811 55.6001 78.3614C51.3213 79.8634 46.9236 81.0027 42.4537 81.7672C40.2466 82.151 38.0635 82.4148 35.8325 82.6307C33.9133 82.8225 31.8742 83.3982 29.955 82.9185C30.5067 82.0311 31.4903 81.4794 32.258 80.7839C33.2338 79.8761 34.0958 78.8533 34.8249 77.7378C36.2643 75.6032 37.2958 73.3246 37.5118 70.7343C37.7277 68.4078 37.4878 65.6256 36.0724 63.6588C35.5926 62.9872 34.633 62.7954 34.2012 62.1718C33.7693 61.5721 33.9373 60.5168 33.6974 59.7973C33.0976 57.9984 31.2984 55.7679 29.7391 54.7125C28.0358 53.5853 25.5408 53.1535 23.5737 53.7532C19.9272 54.8564 17.6722 58.742 16.0169 61.9079C15.1053 59.9892 16.6406 57.135 14.8414 55.576C13.33 54.2568 12.1545 56.8232 11.6507 57.9265C9.29974 63.0832 8.74797 68.5517 7.76439 74.0681C7.35656 73.6604 7.57247 72.6531 7.59646 72.1734C7.66843 71.2859 7.66843 70.4225 7.66843 69.535C7.66843 67.3045 8.10025 65.0499 7.90833 62.8194C7.78838 61.5242 7.38055 58.8139 5.50935 59.2216C3.92602 59.5814 2.91845 61.836 2.41466 63.2031C1.69496 65.1698 1.52704 67.1366 1.57502 69.2232C1.623 71.5258 1.19118 73.8043 1.07123 76.1068C0.855321 80.568 1.07123 85.0051 2.34269 89.3224C4.01629 94.7621 7.28873 99.5723 11.7342 103.127C16.1797 106.682 21.5924 108.817 27.2681 109.254C29.4752 109.398 31.5863 109.134 33.7693 108.918C35.9284 108.702 38.0875 108.582 40.2226 108.318C44.9966 107.743 49.6506 106.232 53.9928 104.193C56.2718 103.114 58.4309 101.818 60.6619 100.667C61.5735 100.211 62.1733 99.6358 62.941 98.9882C63.7086 98.3646 63.9245 98.3166 64.7882 98.3166C64.5243 97.6451 65.268 97.4292 65.6038 96.9975C65.5759 97.2043 65.5599 97.4125 65.5559 97.6211C65.8197 97.0694 66.0357 97.0694 66.2516 97.6451C66.4675 97.0215 66.6354 96.3739 66.8753 95.7743C67.8589 96.2779 67.7869 97.4772 69.1063 96.5897C70.1859 95.8702 71.1935 95.0307 72.321 94.3352C74.8639 92.7282 77.047 90.6655 79.5899 89.0825C79.5899 90.6176 79.7099 92.1766 79.4939 93.7116C79.302 95.1746 78.7503 96.5178 78.3184 97.9329C77.5268 100.499 77.4548 103.257 76.5912 105.8C76.2313 106.855 75.2717 107.743 75.0078 108.774C74.72 109.829 75.3677 110.669 74.2881 111.34C73.5205 111.82 72.5849 112.036 71.7452 112.324C70.4498 112.779 69.2503 113.403 68.0028 113.931C62.1493 116.449 56.4157 118.991 50.994 122.373C45.8362 125.587 40.6064 128.897 35.8805 132.687C31.7782 135.997 27.628 140.266 26.6204 145.638C25.6608 150.867 28.2277 156.479 33.4335 158.182C36.1443 159.07 39.191 158.974 41.9979 158.998C45.0206 159.046 48.2352 158.302 51.2099 157.775C54.3526 157.223 57.4473 156.335 60.59 155.856C63.6127 155.376 66.3955 154.321 69.3462 153.649C72.5129 152.954 75.7515 152.57 78.9422 151.946C80.3816 151.658 81.773 151.251 83.2124 150.987C84.7957 150.699 86.379 150.603 87.9384 150.219C90.9611 149.476 93.8638 148.301 96.8866 147.605C98.254 147.293 99.5974 146.886 100.965 146.598C102.212 146.334 103.196 145.614 104.467 146.214C105.475 146.694 106.291 147.485 107.25 148.037C108.498 148.756 109.817 149.404 111.113 150.028C113.727 151.275 116.438 152.162 119.173 153.098C122.052 154.081 124.859 155.208 127.857 155.88C130.904 156.551 134.023 156.743 137.093 157.271C143.347 158.334 149.678 158.871 156.021 158.878C159.26 158.902 162.475 158.518 165.713 158.566C168.568 158.614 171.039 159.238 173.654 157.727C177.828 155.304 182.65 151.658 182.554 146.358C182.458 141.561 179.579 136.98 176.869 133.19C173.582 128.585 168.904 125.347 164.322 122.181C159.428 118.8 153.958 116.473 148.801 113.523C146.186 112.012 143.763 110.381 140.908 109.326C139.54 108.822 138.221 108.222 136.878 107.671C135.798 107.239 134.239 106.975 133.303 106.256C132.727 105.8 132.679 105.104 132.511 104.409C132.146 102.916 131.681 101.45 131.12 100.02C130.149 97.215 129.45 94.3235 129.033 91.3851C128.625 88.5789 127.713 85.6527 128.193 82.7986C131.264 85.7727 134.431 88.6508 137.597 91.529C138.773 92.6083 139.948 93.7356 141.124 94.8149C142.011 95.6303 143.139 96.8296 144.362 97.0694C145.946 97.3812 145.37 95.6303 146.45 95.3425C147.121 95.1746 149.112 96.8775 149.64 97.2133C152.975 99.324 156.669 100.667 160.34 102.106C164.178 103.617 168.136 104.96 172.287 105.344C176.131 105.67 180.003 105.28 183.706 104.193C191.047 102.106 196.468 97.1893 200.427 90.8094C204.961 83.59 208.247 75.0755 207.983 66.3931Z" fill="#1C0F13"/>
<path fill-rule="evenodd" clip-rule="evenodd" d="M95.6405 50.5392L95.616 50.5639C95.6405 50.5639 95.6405 50.5639 95.6405 50.5392Z" fill="#1C0F13"/>
<path fill-rule="evenodd" clip-rule="evenodd" d="M95.9997 50.6352C95.9693 50.4057 95.913 50.1804 95.8318 49.9636C95.5919 50.3474 95.376 50.5153 95.6879 50.923C95.7862 50.8212 95.8903 50.7251 95.9997 50.6352Z" fill="#1C0F13"/>
<path fill-rule="evenodd" clip-rule="evenodd" d="M112.961 105.776C113.224 105.488 112.769 105.368 112.577 105.368C112.601 105.68 112.433 106.423 112.865 106.567C112.808 106.439 112.787 106.298 112.804 106.158C112.821 106.019 112.875 105.887 112.961 105.776Z" fill="#1C0F13"/>
<path fill-rule="evenodd" clip-rule="evenodd" d="M105.763 45.1667C105.308 46.0781 106.339 46.3419 106.939 45.9102C107.395 45.5744 107.659 44.735 107.731 44.2073C107.971 42.4804 106.747 40.8255 106.147 39.2665C105.979 38.8587 105.787 37.4916 105.284 37.4676C104.708 37.4197 104.66 38.6908 104.66 39.0026C104.676 39.9945 104.863 40.9762 105.212 41.9048C105.5 42.9121 106.315 44.1114 105.763 45.1667Z" fill="#1C0F13"/>
<path fill-rule="evenodd" clip-rule="evenodd" d="M107.995 41.545C109.794 43.1519 111.233 40.4896 111.113 38.9067C111.089 38.5229 110.825 37.0838 110.082 37.6115C109.698 37.8753 110.034 38.7388 109.842 39.0985C108.978 40.9214 108.163 38.0912 107.563 37.8753C106.867 37.6115 106.795 38.5229 106.795 39.0266C106.801 39.5081 106.912 39.9825 107.119 40.4173C107.326 40.852 107.625 41.2368 107.995 41.545Z" fill="#1C0F13"/>
<path fill-rule="evenodd" clip-rule="evenodd" d="M101.469 41.7848C101.901 41.1132 102.405 40.2258 102.477 39.4343C102.573 38.1871 101.853 38.307 101.254 39.1705C100.822 39.7941 100.51 40.8254 99.5982 40.5616C98.4467 40.2498 98.8065 38.6908 98.1588 37.9713C96.5035 40.1299 99.5742 44.7589 101.469 41.7848Z" fill="#1C0F13"/>
<path fill-rule="evenodd" clip-rule="evenodd" d="M103.892 48.4525C104.564 48.5964 106.315 48.5485 105.716 47.5171C104.948 46.222 102.405 48.1407 103.892 48.4525Z" fill="#1C0F13"/>
<path fill-rule="evenodd" clip-rule="evenodd" d="M127.378 9.90924C127.498 9.54947 127.33 9.47751 127.043 9.1897C126.779 9.42954 127.115 9.71736 127.378 9.90924Z" fill="#1C0F13"/>
<path fill-rule="evenodd" clip-rule="evenodd" d="M139.901 76.0828C140.333 76.1548 140.477 75.915 140.333 75.3873C139.613 75.3393 139.469 75.5792 139.901 76.0828Z" fill="#1C0F13"/>
<path fill-rule="evenodd" clip-rule="evenodd" d="M115.743 19.623C116.223 19.8389 116.055 20.2946 116.031 20.7023C116.271 20.4385 116.799 19.9348 116.583 19.5271C116.271 18.9274 115.431 19.4791 115.743 19.623Z" fill="#1C0F13"/>
<path fill-rule="evenodd" clip-rule="evenodd" d="M99.1184 12.0199L98.9025 11.5881C98.5907 11.828 98.1349 12.4756 98.6147 12.7874C98.8045 12.5466 98.9731 12.2898 99.1184 12.0199Z" fill="#1C0F13"/>
<path fill-rule="evenodd" clip-rule="evenodd" d="M104.972 16.2891C105.572 16.7688 105.284 15.3058 105.26 15.1859C105.188 15.3537 104.66 16.0493 104.972 16.2891Z" fill="#1C0F13"/>
<path fill-rule="evenodd" clip-rule="evenodd" d="M104.636 15.5456L104.492 15.1859C104.252 15.4017 103.94 15.8814 104.348 16.1452C104.468 15.9577 104.565 15.7564 104.636 15.5456Z" fill="#1C0F13"/>
<path fill-rule="evenodd" clip-rule="evenodd" d="M108.498 20.5584L108.642 20.7023C108.834 20.2946 108.618 20.0068 108.234 19.9828C108.262 20.1971 108.354 20.3979 108.498 20.5584Z" fill="#1C0F13"/>
<path fill-rule="evenodd" clip-rule="evenodd" d="M92.2334 65.9853C92.4649 65.8206 92.6816 65.636 92.8811 65.4337C92.1614 65.002 92.5932 65.9374 91.7296 65.3617C91.5617 65.6016 91.8495 66.1772 92.2334 65.9853Z" fill="#1C0F13"/>
<path fill-rule="evenodd" clip-rule="evenodd" d="M122.173 105.608C122.437 105.2 122.485 105.2 122.125 104.888C121.813 105.392 121.837 105.272 122.173 105.608Z" fill="#1C0F13"/>
<path fill-rule="evenodd" clip-rule="evenodd" d="M65.5327 39.4104C65.6767 39.5543 65.8206 39.7222 65.9645 39.8661C66.0365 39.6742 66.4203 39.0986 66.1564 38.9067C65.9655 39.0945 65.7566 39.2632 65.5327 39.4104Z" fill="#1C0F13"/>
<path fill-rule="evenodd" clip-rule="evenodd" d="M70.7864 40.9453C70.5465 40.8974 69.9948 40.7295 69.8508 40.9453C70.1867 41.2331 70.9783 40.9693 70.7864 40.9453Z" fill="#1C0F13"/>
<path d="M53 168C53 167.542 54.2418 167.105 56.5 166.705C57.2297 166.575 57.0656 166.826 58 166.705C59.8139 166.469 62.9991 165.874 65.5 165.675C67.337 165.529 68.8444 165.797 71 165.675C74.4781 165.477 78.8423 164.908 83 164.782C83.8221 164.757 84.1557 164.522 85 164.5C85.3317 164.491 86.165 164.695 86.5 164.687C91.5189 164.566 96.9009 164 102.5 164C104.703 164 106.873 164.51 109 164.53C109.334 164.533 109.668 164.536 110 164.54C110.671 164.547 114.338 163.991 115 164C118.295 164.045 118.473 164.678 121.5 164.767C128.677 164.978 134.999 165.305 140 165.715C140.514 165.757 141.014 165.994 141.5 166.038C142.197 166.101 142.864 165.972 143.5 166.038C148.866 166.598 152 167.273 152 168C152 168.49 150.574 168.957 148 169.381C147.537 169.457 147.036 169.532 146.5 169.605C146.027 169.67 145.527 169.733 145 169.795C141.227 170.241 137.091 170.712 131 171C130.344 171.031 128.677 170.972 128 171C125.023 171.127 124.543 171.232 121.201 171.313C120.704 171.325 117.503 170.989 117 171C116.503 171.011 112.158 171.303 111.655 171.313C107.512 171.393 106.999 171.313 102.5 171.313C98.3618 171.313 94.3421 171.464 90.5 171.396C87.005 171.335 80.1569 172.111 77 172C72.1649 171.83 71.2785 170.742 67.5 170.475C66.8129 170.426 66.6459 170.207 66 170.156C65.3088 170.101 64.1418 170.214 63.5 170.156C62.803 170.093 60.1358 169.566 59.5 169.5C54.1345 168.94 53 168.727 53 168Z" fill="#1C0F13"/>
</svg>
